Coordinates
version=1
nRows=16
nColumns=36
inDegrees=yes

Units are S.I. units (second, meters, Newtons, ...)
If the header above contains a line with 'inDegrees', this indicates whether rotational values are in degrees (yes) or radians (no).

endheader
time	pelvis_tilt	pelvis_list	pelvis_rotation	pelvis_tx	pelvis_ty	pelvis_tz	hip_flexion_r	hip_adduction_r	hip_rotation_r	knee_angle_r	knee_angle_r_beta	ankle_angle_r	subtalar_angle_r	mtp_angle_r	hip_flexion_l	hip_adduction_l	hip_rotation_l	knee_angle_l	knee_angle_l_beta	ankle_angle_l	subtalar_angle_l	mtp_angle_l	lumbar_extension	lumbar_bending	lumbar_rotation	arm_flex_r	arm_add_r	arm_rot_r	elbow_flex_r	pro_sup_r	arm_flex_l	arm_add_l	arm_rot_l	elbow_flex_l	pro_sup_l
      0.00000000	      4.02768844	     -1.43269349	      1.81362853	     -0.97987950	      1.31537978	     -0.05908915	     -5.32940351	      0.98050355	     -1.75843779	      6.84191863	      0.11941401	      3.19681419	    -13.39881605	     -5.92263513	     -1.64228614	     -3.14267709	      9.09042388	     14.17802330	      0.24745319	     10.93749612	     -6.02082266	     -5.92263513	     -9.52369279	      3.05094957	      0.49627960	      2.95070769	     -8.93843716	     21.16504230	     22.63651799	     70.03308043	      1.70231496	     -6.90479816	     22.39748235	     23.04045315	     63.10682707
      0.00416670	      2.65978623	     -1.28008295	      2.12704560	     -0.97961242	      1.30987520	     -0.05869764	     -3.79095301	      1.04226122	     -2.14716347	      7.06631120	      0.12333040	      5.39534269	    -11.91220088	     -6.23362838	     -0.25047006	     -2.56246620	     12.01867953	     13.87957008	      0.24224420	      9.56226340	     -8.29436234	     -6.23362838	     -7.22629490	      2.75365954	      0.81279567	      2.03273713	     -7.91771315	     15.77601791	     22.28693516	     69.02721409	      1.74509417	     -6.15855781	     19.06716431	     22.79341065	     62.80604269
      0.00833330	      1.55482595	     -1.21571777	      1.68779622	     -0.97949003	      1.30870614	     -0.05766379	     -2.60571093	      1.08055973	     -2.54218171	      6.87444693	      0.11998173	      5.48817882	    -12.72725136	     -6.81391922	      0.89350972	     -2.33748905	     12.93422570	     13.81903120	      0.24118759	      9.36397818	     -9.46679961	     -6.81391922	     -6.08669296	      2.38240428	      1.79701706	      0.85370805	     -6.50290959	      5.41929460	     23.31870683	     80.91380849	      1.90729818	     -5.48893513	     14.17715821	     22.55758618	     69.21216115
      0.01250000	      2.06311706	     -1.05906741	      1.55649180	     -0.97987320	      1.31013013	     -0.05723856	     -3.09424269	      0.91639636	     -2.76543218	      6.82456134	      0.11911107	      5.60390852	    -12.85503182	     -6.93195134	      0.01022024	     -2.06850712	     14.02636897	     13.20092581	      0.23039962	      8.58233855	    -11.39974781	     -6.93195134	     -6.87213259	      2.02909472	      2.25660261	      0.75656431	     -5.86551471	      3.15563151	     23.45647167	     79.82011507	      2.25496869	     -5.28719958	     11.98147265	     22.61021039	     68.50176099
      0.01666670	      2.11841502	     -0.96781856	      1.36285312	     -0.97994566	      1.31026812	     -0.05684593	     -3.06441194	      0.80007505	     -2.86995080	      6.87638682	      0.12001559	      5.49211154	    -13.13123763	     -7.13691593	     -0.28220586	     -1.89825603	     14.71438837	     12.90170640	      0.22517726	      8.27327695	    -12.34019735	     -7.13691593	     -6.99838901	      1.85476813	      2.68804190	      0.37361743	     -5.51648805	      0.28165573	     24.03212871	     85.04409297	      2.26787209	     -5.04743185	      9.56213184	     22.78891106	     71.84916805
      0.02083330	      2.42786989	     -0.92650208	      1.24162899	     -0.98007833	      1.31093141	     -0.05655281	     -3.35485838	      0.75897136	     -2.80265091	      6.97210493	      0.12168619	      5.20718013	    -13.54831874	     -7.17166983	     -0.70342956	     -1.75610939	     15.52997866	     12.81824791	      0.22372063	      7.93610687	    -13.55623273	     -7.17166983	     -7.28760554	      1.82813112	      3.05645502	      0.29296369	     -5.68190436	      1.10046374	     24.27350819	     84.80211241	      2.39650289	     -5.00226453	      9.73122994	     22.87449378	     71.87238012
      0.02500000	      2.51422137	     -0.78899227	      1.22401446	     -0.98008319	      1.31105843	     -0.05638290	     -3.58628656	      0.64864038	     -2.61297567	      6.59500072	      0.11510448	      5.06874773	    -13.70486057	     -7.20222919	     -0.84657499	     -1.56047966	     16.13340452	     12.77387876	      0.22294624	      7.77507384	    -14.33831513	     -7.20222919	     -7.26661575	      1.70364389	      3.25514316	      0.26178259	     -5.75356064	      1.71809975	     24.30299956	     83.71831762	      2.48876194	     -4.96055111	      9.86590851	     22.80808613	     71.29609344
      0.02916670	      2.45065196	     -0.68374314	      1.29456925	     -0.98005960	      1.31056832	     -0.05627600	     -3.56591009	      0.51074513	     -2.38173379	      6.55690278	      0.11443954	      5.03327098	    -13.63295323	     -7.24972569	     -0.76183659	     -1.37709491	     16.92765122	     12.80479566	      0.22348584	      7.18175673	    -15.68571708	     -7.24972569	     -7.08091803	      1.56922309	      3.26677844	      0.25019243	     -5.97920405	      3.40361112	     24.41586310	     83.97853008	      2.47439034	     -5.03876477	     10.60171192	     22.93377602	     72.05223263
      0.03333330	      2.53113265	     -0.56871257	      1.36605903	     -0.98010694	      1.31067252	     -0.05625982	     -3.68397213	      0.37650788	     -2.21914954	      6.53262859	      0.11401588	      5.02858117	    -13.54772066	     -7.34699522	     -0.80391317	     -1.22329131	     17.20438358	     12.76782007	      0.22284050	      6.84806569	    -16.21761653	     -7.34699522	     -7.18527239	      1.41006406	      3.23537159	      0.24729161	     -5.95366672	      2.94038574	     24.52586205	     88.75375722	      2.49946634	     -4.99390031	      9.36908418	     22.94343198	     78.10548612
      0.03750000	      2.23147671	     -0.48669351	      1.41783771	     -0.97970684	      1.31004689	     -0.05618688	     -3.36097691	      0.26577885	     -2.02753786	      6.62296083	      0.11559247	      5.21460061	    -13.33280965	     -7.35450722	     -0.43311950	     -1.12154986	     17.22011712	     12.79754761	      0.22335934	      7.23368869	    -15.96791487	     -7.35450722	     -6.69250124	      1.27969469	      3.31498949	     -0.12613553	     -5.98088260	      3.02150868	     25.12573454	     87.74587101	      2.24360070	     -5.05108895	      9.34550456	     23.49776526	     77.39620191
      0.04166670	      2.65252524	     -0.39426983	      1.42067827	     -0.98009665	      1.31046196	     -0.05620306	     -3.83798064	      0.14991075	     -1.90096749	      6.64931729	      0.11605248	      4.98129578	    -13.66803889	     -7.36964672	     -0.90336221	     -0.98477620	     17.71196119	     12.72220380	      0.22204434	      6.55142326	    -17.05773198	     -7.36964672	     -7.28277612	      1.14753506	      3.25708660	      0.22806533	     -6.02040974	      3.53980108	     24.84858809	     86.74740535	      2.46664057	     -4.95718251	      9.77088978	     22.80842056	     76.65389276
      0.04583330	      2.69152515	     -0.37476864	      1.41130715	     -0.97998482	      1.31056374	     -0.05608675	     -3.85942319	      0.13211207	     -1.75935484	      6.73358180	      0.11752317	      4.90296752	    -13.82571085	     -7.38080831	     -0.93808034	     -0.92315766	     18.11356594	     12.77465185	      0.22295974	      6.28613893	    -17.42621303	     -7.38080831	     -7.36016594	      1.13436493	      3.24285158	      0.22064986	     -6.03993224	      3.93531193	     25.07430763	     85.80515816	      2.45953651	     -4.97901145	     10.08423893	     22.86173437	     75.95799033
      0.05000000	      2.80482386	     -0.39865118	      1.39837387	     -0.98005765	      1.31075124	     -0.05607572	     -3.99508135	      0.15401751	     -1.57602508	      6.77658999	      0.11827381	      4.83492422	    -14.10591977	     -7.39079833	     -1.06189714	     -0.92786850	     18.43397289	     12.78644815	      0.22316562	      6.13231701	    -17.72080140	     -7.39079833	     -7.48942897	      1.14494483	      3.20425487	      0.25335679	     -6.17392338	      4.33118796	     25.19333028	     84.88951073	      2.51069832	     -5.14732451	     10.51029603	     22.87549985	     75.27113217
      0.05416670	      2.80461547	     -0.38073248	      1.40885342	     -0.98016585	      1.31427231	     -0.05638260	     -4.06377010	      0.14470217	     -1.52004764	      6.71267863	      0.11715834	      4.59568771	    -14.26418827	     -7.41378592	     -1.07977462	     -0.88902579	     18.74080537	     12.70021533	      0.22166057	      5.55817435	    -18.46082326	     -7.41378592	     -7.49897530	      1.09341059	      3.10675411	      0.31258166	     -6.34271482	      5.21715807	     25.18611759	     85.41722486	      2.64094489	     -5.35597725	     11.77515170	     22.76997804	     76.24638123
      0.05833330	      2.86521302	     -0.35962014	      1.39348013	     -0.98012463	      1.31054704	     -0.05604774	     -4.12478276	      0.11784661	     -1.54437633	      6.72198208	      0.11732072	      4.50383831	    -14.28045835	     -7.44619667	     -1.12566990	     -0.86900592	     18.73075296	     12.72201169	      0.22204099	      5.46661004	    -18.59493955	     -7.44619667	     -7.61458563	      1.06146524	      3.19180382	      0.21774596	     -6.19814936	      3.05717402	     25.31281714	     92.96302681	      2.80268599	     -5.36803008	     10.93166941	     22.55196324	     82.71896920
      0.06250000	      2.94621310	     -0.34397433	      1.37854725	     -0.98007903	      1.31077978	     -0.05603945	     -4.22951612	      0.12560747	     -1.66563917	      6.61449660	      0.11544474	      4.14387337	    -14.60423081	     -7.44839619	     -1.22444864	     -0.84139578	     18.85259924	     12.69351201	      0.22154358	      5.25671142	    -18.84555251	     -7.44839619	     -7.72333971	      1.04516180	      3.13518018	      0.27309226	     -6.22899710	      3.13629680	     25.39651749	     92.10478764	      2.81726467	     -5.43432098	     11.05450381	     22.56042009	     81.92164590
